<svg xmlns="http://www.w3.org/2000/svg" fill="#fff" viewBox="0 0 1024 1024"><path d="M294.7 190.2c-3.1 1.1-4.4 4.6-2.8 7.7 1.2 2.2 3.2 2.7 15.1 3.6 20.4 1.6 26.1 6.7 28 24.8.5 5.2 1.1 27.8 1.2 50.3s.5 51.9.8 65.2c.5 23.4.6 24.5 2.6 26.1 2.1 1.7 29.5 9.8 47.2 14 7.7 1.8 11.2 1.9 11.2.2 0-.3.1-35.5.3-78.1.2-77 .2-77.5 2.4-82.2 2.6-5.8 5.2-7.4 13.9-9.3 24.2-5.3 69.6-1.5 99.6 8.1 45.7 14.7 78.4 43.1 96.3 83.5 7.5 16.9 13.3 37.7 16 57.3l.7 4.9 10.6-.6c15.3-.9 33-4.3 51.5-9.8l6.7-2.1v-3.9c0-6.2-4.8-27.3-9.5-41.5-7.9-24.1-19.6-45.3-33.2-60.4-33-36.5-75.3-54.1-139.6-58-21.7-1.3-215.3-1.2-219 .2M870 312.7c-37 25-86.8 46.5-134 57.7-38.1 9.1-70.9 12.6-118.4 12.6-13.2 0-23.7.3-23.3.6 1 1 22.8 6.2 32.7 7.8 48.3 7.7 103.8 2.2 151.5-15 21.8-7.9 50.3-23.4 69.3-37.6 12.6-9.5 33.8-30.7 32.1-32.2-.2-.2-4.7 2.5-9.9 6.1"/><path d="M225.5 368.5c-33.8 5.3-62.1 24.1-76.4 50.6-10.1 18.7-10.9 42.1-2.1 61.5 9 19.9 30.6 39.2 59 52.8 21.9 10.4 48.3 18 31.8 9.1-10.8-5.8-30.8-18.7-39.5-25.3-10.5-8.2-23.5-21.8-28.2-29.6-5.8-9.6-8.3-17.9-8.8-29.1-.5-9-.2-10.8 2.1-18 8-23.5 29.3-40.5 57.6-46 23.6-4.5 63.2 0 111.3 12.6l3.7 1v50.7c0 82.2-1.9 99.5-11.6 105.9-3.1 2-14.4 4.2-21.9 4.3-8.6.1-12.6 3.8-9.1 8.5 1.4 1.9 3.1 2 40.3 2.7 23.7.4 48.5 1.5 63.8 2.7 62 5.1 86.3 6.2 112.2 5 48.1-2.2 83.8-12.7 116-34.1 12.7-8.5 32.6-27.7 42.3-40.8 11.3-15.3 17.2-26.2 27.6-51 1.5-3.5 1.8-3.6 15.2-7.4 16.6-4.6 32.8-10.8 48.2-18.5 11-5.4 29.6-16.9 28.7-17.7-.2-.2-7.1 1.9-15.3 4.6-57.7 19.4-111.4 24.2-185.9 16.5-47-4.9-101.9-17-184-40.5-72.7-20.8-103.8-28-133.9-30.9-14.2-1.4-33-1.2-43.1.4m186.5 60c79.2 24.4 127.6 33.3 192.3 35.1l23.7.7-.5 3.6c-4 25-11.4 41.2-26.1 57.1-25.7 27.7-68.6 41.3-125.9 39.7-26.3-.7-45-4.1-59.2-10.8-15.5-7.4-17.3-15.7-17.3-83.7 0-24.8.3-45.2.8-45.2.4 0 5.9 1.6 12.2 3.5"/><path d="M800.5 383.1c-17.5 6-52.2 14.2-72 16.8-56.7 7.6-106.8 5.9-193.8-6.5-9.8-1.4-18.3-2.4-19-2.1-2.2.7 39.5 14.2 57.8 18.7 14.8 3.6 35.5 7.5 52.3 9.7 16.4 2.1 63.8 2.4 79.2.5 37.4-4.9 66.1-14.2 93.1-30.5 19.9-11.9 20.2-12.8 2.4-6.6M691.2 648.2c-1.2 2.9-10.9 27.5-21.6 54.7-13.9 35.1-20.4 50.3-22.3 52.3-1.5 1.6-4.9 3.6-7.5 4.6-2.7.9-4.8 2-4.8 2.4 0 .5 8.1.8 18 .8 16.8 0 21.8-.8 15.3-2.5-4-.9-6.3-3.4-6.2-6.4 0-1.4 2.4-8.9 5.2-16.6l5.3-14h36.7l6.3 16.5c3.5 9.1 6.4 17.1 6.4 17.8s-1.1 1.7-2.5 2.4c-1.3.6-2.2 1.5-1.9 1.9.7 1.2 40.4 1.1 40.4 0 0-.5-1.5-1.2-3.2-1.6-1.8-.4-5-1.8-7-3.1-4.4-2.8-6.8-7.6-19.2-37.4-4.6-11.3-12.3-30-17.1-41.5-4.8-11.6-10-24.3-11.7-28.3-3.7-9-5.5-9.4-8.6-2m.9 29.5c.6 1.6 3.7 9.8 6.9 18.3s6.1 16.3 6.5 17.2c.7 1.7-.4 1.8-14.5 1.8-9.1 0-15-.4-14.8-.9 3.2-9.2 14.4-39.1 14.6-39.1.1 0 .7 1.2 1.3 2.7m177.4 17.5c-11.4 28.8-21.4 53.8-22.2 55.6-2.1 4.4-6.6 8-11.9 9.3-2.4.6-4.4 1.5-4.4 2s8.6.9 19 .9c17.8 0 23.6-.9 15.5-2.4-4.3-.8-6.5-3-6.4-6.4 0-1.5 2.4-9 5.2-16.7l5.2-14 18.2-.3 18.1-.2 4.7 12.2c2.6 6.8 5.4 13.8 6.1 15.7 1.9 4.7 1.7 7.8-.6 9.4-1.1.8-1.7 1.7-1.3 2 1 1.1 38.1.8 38.8-.3.3-.5-1.2-1.4-3.3-2-2.2-.5-5.2-2-6.7-3.2-4-3.1-4.9-5.2-44.4-99.8-3.4-8.3-6.2-13.6-7.2-13.8-1.2-.2-6.3 11.5-22.4 52m25.8.3c3.7 9.9 6.7 18.3 6.7 18.7 0 .5-6.6.8-14.6.8h-14.5l.6-2.3c2.3-7.4 14-36.5 14.6-35.9.3.4 3.6 8.8 7.2 18.7m-655.8-48.8c-31.8.3-41.3 1.1-31.5 2.8 2.2.4 5.3 1.7 6.8 3l2.7 2.3.3 48.6c.2 42.3.1 48.9-1.3 51.6-1.5 3-6 6-9 6-.8 0-1.5.4-1.5 1s12.7 1 36 1c33.9 0 36-.1 36.9-1.8 1.5-2.8 2.6-20.2 1.3-20.2-.6 0-1.4.9-1.7 2.1-.4 1.1-2 3.6-3.7 5.5-3.7 4.2-10.6 6.4-20.2 6.4s-14.4-1.5-15.6-4.6c-.6-1.4-1-12.2-1-24V705h11.8c14 0 17.1 1.3 20.2 8.5 1.1 2.5 2.4 4.5 2.9 4.5.8 0 2.1-23.7 1.3-24.9-.1-.3-1.9.4-4 1.4-3 1.5-6.5 2-17.9 2.3l-14.3.4V655h10.6c14.4 0 18.8 1.2 22.5 6.3 1.6 2.2 2.9 4.6 2.9 5.4 0 .7.5 1.3 1 1.3.6 0 1.1-3.8 1.2-9 .1-5 .2-9.8.2-10.7.1-1-.6-1.8-1.4-1.8s-16.8.1-35.5.2m213.3 0c-33.5.3-39 1-29.4 3.4 8.6 2.1 8.1-1.4 8.1 54.9 0 47.6-.1 49.9-1.9 51.9-1.1 1.2-3.7 2.6-5.8 3.3-2.1.6-3.8 1.5-3.8 2 0 .4 16.5.7 36.8.6l36.7-.3 1.2-9c1.5-11.5 1.5-13.5.4-13.5-.6 0-2.2 2.2-3.6 4.9-3.9 7-8.4 9.3-20 9.9-10.4.5-15.8-.7-17.8-4.1-.8-1.5-1.3-9-1.5-24l-.4-21.7h11.4c13.6 0 18.5 1.7 21.1 7.3.9 1.9 1.7 4 1.7 4.7 0 .6.6 1 1.3.8.8-.3 1.3-3.9 1.5-12.3l.3-11.8-2.3.8c-6.3 1.9-12.7 2.5-23 2.3l-11.3-.3-.3-20.8-.2-20.7h10.2c11.5.1 18.3 1.3 21.2 3.8 1 .9 2.8 3.6 3.8 6 1.1 2.3 2.3 4 2.9 3.7.5-.4.9-5.5.9-11.6 0-10.7 0-10.9-2.2-10.7-1.3.2-17.5.4-36 .5M62 647.8c0 .5 1.9 1.4 4.3 2 2.3.6 5.4 2.3 6.7 3.7l2.5 2.7.3 47.3c.3 54.9.6 53.2-7.7 56.2-2.8 1-5.1 2-5.1 2.4 0 .3 15.2.9 33.8 1.2 36 .7 39.4.5 53.9-4.4 13-4.3 26.3-15.5 32.1-27.1 4.4-8.8 6.2-16.7 6.2-27.3 0-16.7-4.5-28-15.5-39.1-5.2-5.3-8.9-8-14.5-10.6-14.4-6.9-16.3-7.1-58.7-7.5-24-.3-38.3-.1-38.3.5m62.8 7.8c22 4.4 36.9 19 41.8 41.1 2 9.2 1.5 24.1-1.2 31.8-7.4 21.3-31 32.3-59 27.4-10.6-1.8-9.9 1.6-10.2-48.8-.2-24 0-45 .3-46.8 1-5.4 2.7-6.3 12.1-6.3 4.7 0 12 .7 16.2 1.6m173.2-7.8c0 .4 2.2 1.5 5 2.5s5.5 2.8 6.2 4c1.7 2.9 2.4 85.7.9 95.5-1.1 7.1-3 9.5-8.3 10.7-7.8 1.8-2.2 2.5 19.6 2.5 14.8 0 23.6-.4 23.6-1 0-.5-1.2-1.2-2.7-1.6-11.2-2.4-11.7-3.5-12.1-26.6l-.4-18.8H345l14.4 19.2c16.3 21.9 19.3 25.1 25.5 27.3 4.8 1.7 28.6 2.2 29.5.6.3-.5-2.2-1.9-5.7-3.1-7.9-2.9-14.2-9.1-33-32.7L362 709l7-6.8c9.3-9.2 12.4-15.7 12.4-26.7.1-7.2-.2-8.6-3-13.5-4-7.1-9-10.5-18.8-13-7-1.8-11.2-2-34.8-2-14.7 0-26.8.3-26.8.8m52.5 9.7c3.3 2.1 5.7 4.7 7.9 8.5 2.9 5.2 3.1 6 3.1 16.5 0 10.2-.2 11.3-2.7 15.7-4.6 7.7-12.1 10.7-23.4 9.3l-5.4-.6v-25.8c0-14.2.3-26.1.8-26.5.4-.4 3.9-.6 7.8-.4 5.8.3 8 .9 11.9 3.3m159.5-9.7c0 .6 1.5 1.4 3.3 1.7 5.9 1.3 8.5 3.3 9.6 7.3.7 2.3 1.1 20.8 1.1 49.5 0 37.5-.3 46.3-1.4 48.5-1.3 2.6-3.7 4.2-7.8 5.6-5.4 1.7 1.3 2.3 29.6 2.9 35.5.8 43.2 0 56.4-5.5 15.2-6.3 27.5-19.2 32.3-33.9 3.4-10.5 3.5-28.3.1-38.1-4.9-14.2-13.7-24-27.6-30.9-13.6-6.6-17.4-7.1-58.8-7.6-24.3-.3-36.8-.1-36.8.5m68.2 9.5c21.7 7 34.1 23.5 36.4 48.3 1.6 17.8-4.6 34-16.4 42.4-8.9 6.4-16.5 8.5-31.2 8.5-14.5 0-20.1-1.3-21.8-5-1.8-3.8-1.7-92.5.1-94.7 2-2.5 3.6-2.8 14.7-2.4 7.6.3 12.6 1.1 18.2 2.9m154.8-9.4c0 .4 2.6 1.8 5.8 2.9 7.2 2.7 11.2 6.8 19 19.7 3.3 5.5 9.2 15.4 13.2 21.9 12.8 21.1 12.5 20 12.5 42.7 0 22.2-.2 22.8-7.6 25.1-2.1.6-3.6 1.5-3.3 1.9.7 1.2 45.4 1.2 45.4 0 0-.5-1.9-1.2-4.2-1.5-4.9-.8-6.9-2-8.9-5.6-1.8-3.3-1.7-38.9.1-44.7 1.1-3.4 15.8-28.6 26.6-45.4 5.1-8 11.1-13.3 16.9-14.9 2.5-.7 4.2-1.6 3.9-2.1-.7-1.1-37.4-1.2-37.4-.1 0 .5 1.5 1.5 3.3 2.3 2.6 1.1 3.2 2 3.5 4.9.2 2.8-1.3 6.2-7.4 17-4.2 7.4-9.7 17.2-12.2 21.7-2.5 4.6-4.8 8.3-5.1 8.3-.6 0-3.5-4.9-20.8-34.9-4-6.9-7.3-13.1-7.3-13.8 0-.8 1.3-2.2 3-3.1 1.6-.9 3-2 3-2.5 0-.4-9.4-.7-21-.7-11.5 0-21 .4-21 .9"/></svg>